<mxfile host="app.diagrams.net" agent="Mozilla/5.0 (Windows NT 10.0; Win64; x64) AppleWebKit/537.36 (KHTML, like Gecko) Chrome/131.0.0.0 Safari/537.36" version="25.0.3">
  <diagram name="Page-1" id="n5V6H8wJ9e8nPwuyihbk">
    <mxGraphModel dx="1050" dy="562" grid="1" gridSize="10" guides="1" tooltips="1" connect="1" arrows="1" fold="1" page="1" pageScale="1" pageWidth="850" pageHeight="1100" math="0" shadow="0">
      <root>
        <mxCell id="0" />
        <mxCell id="1" parent="0" />
        <mxCell id="OcZJ3oUY0sXhL9YtE-l9-26" value="" style="edgeStyle=orthogonalEdgeStyle;rounded=0;orthogonalLoop=1;jettySize=auto;html=1;entryX=0.022;entryY=0.873;entryDx=0;entryDy=0;entryPerimeter=0;shape=link;" edge="1" parent="1" source="OcZJ3oUY0sXhL9YtE-l9-2" target="OcZJ3oUY0sXhL9YtE-l9-9">
          <mxGeometry relative="1" as="geometry">
            <mxPoint x="515" y="285" as="targetPoint" />
          </mxGeometry>
        </mxCell>
        <mxCell id="OcZJ3oUY0sXhL9YtE-l9-27" value="1.N" style="edgeLabel;html=1;align=center;verticalAlign=middle;resizable=0;points=[];" vertex="1" connectable="0" parent="OcZJ3oUY0sXhL9YtE-l9-26">
          <mxGeometry x="-0.2869" y="-2" relative="1" as="geometry">
            <mxPoint as="offset" />
          </mxGeometry>
        </mxCell>
        <mxCell id="OcZJ3oUY0sXhL9YtE-l9-2" value="gestion" style="ellipse;whiteSpace=wrap;html=1;" vertex="1" parent="1">
          <mxGeometry x="400" y="260" width="50" height="50" as="geometry" />
        </mxCell>
        <mxCell id="OcZJ3oUY0sXhL9YtE-l9-17" value="" style="rounded=0;orthogonalLoop=1;jettySize=auto;html=1;shape=link;" edge="1" parent="1" source="OcZJ3oUY0sXhL9YtE-l9-3" target="OcZJ3oUY0sXhL9YtE-l9-8">
          <mxGeometry relative="1" as="geometry">
            <mxPoint x="325" y="185" as="targetPoint" />
          </mxGeometry>
        </mxCell>
        <mxCell id="OcZJ3oUY0sXhL9YtE-l9-18" value="0.N" style="edgeLabel;html=1;align=center;verticalAlign=middle;resizable=0;points=[];" vertex="1" connectable="0" parent="OcZJ3oUY0sXhL9YtE-l9-17">
          <mxGeometry x="-0.5022" y="-1" relative="1" as="geometry">
            <mxPoint as="offset" />
          </mxGeometry>
        </mxCell>
        <mxCell id="OcZJ3oUY0sXhL9YtE-l9-3" value="&lt;ol&gt;&lt;li&gt;ID&lt;/li&gt;&lt;li&gt;Name&lt;/li&gt;&lt;li&gt;email&lt;/li&gt;&lt;li&gt;tele&lt;/li&gt;&lt;/ol&gt;" style="whiteSpace=wrap;html=1;aspect=fixed;align=left;" vertex="1" parent="1">
          <mxGeometry x="150" y="140" width="90" height="90" as="geometry" />
        </mxCell>
        <mxCell id="OcZJ3oUY0sXhL9YtE-l9-6" value="user" style="rounded=0;whiteSpace=wrap;html=1;" vertex="1" parent="1">
          <mxGeometry x="150" y="110" width="90" height="30" as="geometry" />
        </mxCell>
        <mxCell id="OcZJ3oUY0sXhL9YtE-l9-15" value="" style="edgeStyle=orthogonalEdgeStyle;rounded=0;orthogonalLoop=1;jettySize=auto;html=1;entryX=0;entryY=0.5;entryDx=0;entryDy=0;shape=link;" edge="1" parent="1" source="OcZJ3oUY0sXhL9YtE-l9-8" target="OcZJ3oUY0sXhL9YtE-l9-9">
          <mxGeometry relative="1" as="geometry">
            <mxPoint x="522.5" y="195" as="targetPoint" />
          </mxGeometry>
        </mxCell>
        <mxCell id="OcZJ3oUY0sXhL9YtE-l9-19" value="0.N" style="edgeLabel;html=1;align=center;verticalAlign=middle;resizable=0;points=[];" vertex="1" connectable="0" parent="OcZJ3oUY0sXhL9YtE-l9-15">
          <mxGeometry x="0.56" y="2" relative="1" as="geometry">
            <mxPoint as="offset" />
          </mxGeometry>
        </mxCell>
        <mxCell id="OcZJ3oUY0sXhL9YtE-l9-8" value="Loan" style="ellipse;whiteSpace=wrap;html=1;aspect=fixed;" vertex="1" parent="1">
          <mxGeometry x="400" y="140" width="50" height="50" as="geometry" />
        </mxCell>
        <mxCell id="OcZJ3oUY0sXhL9YtE-l9-9" value="&lt;ol&gt;&lt;li&gt;ID&lt;/li&gt;&lt;li&gt;Title&lt;/li&gt;&lt;li&gt;date-start&lt;/li&gt;&lt;li&gt;date-end&lt;/li&gt;&lt;/ol&gt;" style="whiteSpace=wrap;html=1;aspect=fixed;align=left;" vertex="1" parent="1">
          <mxGeometry x="590" y="130" width="110" height="110" as="geometry" />
        </mxCell>
        <mxCell id="OcZJ3oUY0sXhL9YtE-l9-10" value="Book" style="rounded=0;whiteSpace=wrap;html=1;" vertex="1" parent="1">
          <mxGeometry x="590" y="100" width="110" height="30" as="geometry" />
        </mxCell>
        <mxCell id="OcZJ3oUY0sXhL9YtE-l9-23" value="" style="edgeStyle=orthogonalEdgeStyle;rounded=0;orthogonalLoop=1;jettySize=auto;html=1;entryX=0;entryY=0.5;entryDx=0;entryDy=0;shape=link;" edge="1" parent="1" source="OcZJ3oUY0sXhL9YtE-l9-20" target="OcZJ3oUY0sXhL9YtE-l9-2">
          <mxGeometry relative="1" as="geometry">
            <mxPoint x="310" y="400" as="targetPoint" />
          </mxGeometry>
        </mxCell>
        <mxCell id="OcZJ3oUY0sXhL9YtE-l9-24" value="1" style="edgeLabel;html=1;align=center;verticalAlign=middle;resizable=0;points=[];" vertex="1" connectable="0" parent="OcZJ3oUY0sXhL9YtE-l9-23">
          <mxGeometry x="-0.6926" y="-2" relative="1" as="geometry">
            <mxPoint as="offset" />
          </mxGeometry>
        </mxCell>
        <mxCell id="OcZJ3oUY0sXhL9YtE-l9-34" value="" style="edgeStyle=orthogonalEdgeStyle;rounded=0;orthogonalLoop=1;jettySize=auto;html=1;entryX=0.016;entryY=0.776;entryDx=0;entryDy=0;entryPerimeter=0;shape=link;" edge="1" parent="1" source="OcZJ3oUY0sXhL9YtE-l9-20" target="OcZJ3oUY0sXhL9YtE-l9-32">
          <mxGeometry relative="1" as="geometry">
            <mxPoint x="310" y="400" as="targetPoint" />
          </mxGeometry>
        </mxCell>
        <mxCell id="OcZJ3oUY0sXhL9YtE-l9-51" value="1" style="edgeLabel;html=1;align=center;verticalAlign=middle;resizable=0;points=[];" vertex="1" connectable="0" parent="OcZJ3oUY0sXhL9YtE-l9-34">
          <mxGeometry x="-0.4637" y="-1" relative="1" as="geometry">
            <mxPoint as="offset" />
          </mxGeometry>
        </mxCell>
        <mxCell id="OcZJ3oUY0sXhL9YtE-l9-52" value="1.N" style="edgeLabel;html=1;align=center;verticalAlign=middle;resizable=0;points=[];" vertex="1" connectable="0" parent="OcZJ3oUY0sXhL9YtE-l9-34">
          <mxGeometry x="-0.4418" y="1" relative="1" as="geometry">
            <mxPoint as="offset" />
          </mxGeometry>
        </mxCell>
        <mxCell id="OcZJ3oUY0sXhL9YtE-l9-20" value="&lt;ol&gt;&lt;li&gt;ID&lt;/li&gt;&lt;li&gt;Name&lt;/li&gt;&lt;li&gt;Email&lt;/li&gt;&lt;li&gt;tele&lt;/li&gt;&lt;/ol&gt;" style="whiteSpace=wrap;html=1;aspect=fixed;align=left;" vertex="1" parent="1">
          <mxGeometry x="150" y="360" width="80" height="80" as="geometry" />
        </mxCell>
        <mxCell id="OcZJ3oUY0sXhL9YtE-l9-21" value="Adnin" style="rounded=0;whiteSpace=wrap;html=1;" vertex="1" parent="1">
          <mxGeometry x="150" y="320" width="80" height="40" as="geometry" />
        </mxCell>
        <mxCell id="OcZJ3oUY0sXhL9YtE-l9-46" value="" style="edgeStyle=orthogonalEdgeStyle;rounded=0;orthogonalLoop=1;jettySize=auto;html=1;entryX=0.333;entryY=1;entryDx=0;entryDy=0;entryPerimeter=0;shape=link;" edge="1" parent="1" source="OcZJ3oUY0sXhL9YtE-l9-28" target="OcZJ3oUY0sXhL9YtE-l9-44">
          <mxGeometry relative="1" as="geometry">
            <mxPoint x="770" y="400" as="targetPoint" />
          </mxGeometry>
        </mxCell>
        <mxCell id="OcZJ3oUY0sXhL9YtE-l9-47" value="1" style="edgeLabel;html=1;align=center;verticalAlign=middle;resizable=0;points=[];" vertex="1" connectable="0" parent="OcZJ3oUY0sXhL9YtE-l9-46">
          <mxGeometry x="0.6275" relative="1" as="geometry">
            <mxPoint as="offset" />
          </mxGeometry>
        </mxCell>
        <mxCell id="OcZJ3oUY0sXhL9YtE-l9-28" value="&lt;ol&gt;&lt;li&gt;ID&lt;/li&gt;&lt;li&gt;Name&lt;/li&gt;&lt;/ol&gt;" style="whiteSpace=wrap;html=1;aspect=fixed;align=left;" vertex="1" parent="1">
          <mxGeometry x="610" y="360" width="80" height="80" as="geometry" />
        </mxCell>
        <mxCell id="OcZJ3oUY0sXhL9YtE-l9-29" value="Category" style="rounded=0;whiteSpace=wrap;html=1;" vertex="1" parent="1">
          <mxGeometry x="610" y="320" width="80" height="40" as="geometry" />
        </mxCell>
        <mxCell id="OcZJ3oUY0sXhL9YtE-l9-38" value="" style="edgeStyle=orthogonalEdgeStyle;rounded=0;orthogonalLoop=1;jettySize=auto;html=1;entryX=0;entryY=0.25;entryDx=0;entryDy=0;shape=link;" edge="1" parent="1" source="OcZJ3oUY0sXhL9YtE-l9-32" target="OcZJ3oUY0sXhL9YtE-l9-28">
          <mxGeometry relative="1" as="geometry">
            <mxPoint x="525" y="385" as="targetPoint" />
          </mxGeometry>
        </mxCell>
        <mxCell id="OcZJ3oUY0sXhL9YtE-l9-39" value="1.N" style="edgeLabel;html=1;align=center;verticalAlign=middle;resizable=0;points=[];" vertex="1" connectable="0" parent="OcZJ3oUY0sXhL9YtE-l9-38">
          <mxGeometry x="0.4813" relative="1" as="geometry">
            <mxPoint as="offset" />
          </mxGeometry>
        </mxCell>
        <mxCell id="OcZJ3oUY0sXhL9YtE-l9-32" value="gestion" style="ellipse;whiteSpace=wrap;html=1;aspect=fixed;" vertex="1" parent="1">
          <mxGeometry x="410" y="360" width="50" height="50" as="geometry" />
        </mxCell>
        <mxCell id="OcZJ3oUY0sXhL9YtE-l9-49" value="" style="edgeStyle=orthogonalEdgeStyle;rounded=0;orthogonalLoop=1;jettySize=auto;html=1;entryX=1;entryY=0.25;entryDx=0;entryDy=0;shape=link;" edge="1" parent="1" source="OcZJ3oUY0sXhL9YtE-l9-44" target="OcZJ3oUY0sXhL9YtE-l9-9">
          <mxGeometry relative="1" as="geometry">
            <mxPoint x="760" y="175" as="targetPoint" />
          </mxGeometry>
        </mxCell>
        <mxCell id="OcZJ3oUY0sXhL9YtE-l9-50" value="1,N" style="edgeLabel;html=1;align=center;verticalAlign=middle;resizable=0;points=[];" vertex="1" connectable="0" parent="OcZJ3oUY0sXhL9YtE-l9-49">
          <mxGeometry x="0.3397" y="2" relative="1" as="geometry">
            <mxPoint as="offset" />
          </mxGeometry>
        </mxCell>
        <mxCell id="OcZJ3oUY0sXhL9YtE-l9-44" value="Include" style="ellipse;whiteSpace=wrap;html=1;" vertex="1" parent="1">
          <mxGeometry x="730" y="250" width="60" height="50" as="geometry" />
        </mxCell>
      </root>
    </mxGraphModel>
  </diagram>
</mxfile>
